<svg width="80" height="80" viewBox="0 0 80 80" fill="none" xmlns="http://www.w3.org/2000/svg">
<g clip-path="url(#clip0_293_1849)">
<path d="M13.3337 53.3333C17.0156 53.3333 20.0003 50.3486 20.0003 46.6667C20.0003 42.9848 17.0156 40 13.3337 40C9.65176 40 6.66699 42.9848 6.66699 46.6667C6.66699 50.3486 9.65176 53.3333 13.3337 53.3333Z" fill="#4515DD"/>
<path d="M4.06667 58.5998C2.85904 59.116 1.82975 59.9757 1.10673 61.0721C0.383709 62.1685 -0.00114562 63.4532 2.56165e-06 64.7665V69.9998H15V64.6332C15 61.8665 15.7667 59.2665 17.1 56.9998C15.8667 56.7998 14.6333 56.6665 13.3333 56.6665C10.0333 56.6665 6.9 57.3665 4.06667 58.5998Z" fill="#4515DD"/>
<path d="M66.6667 53.3333C70.3486 53.3333 73.3333 50.3486 73.3333 46.6667C73.3333 42.9848 70.3486 40 66.6667 40C62.9848 40 60 42.9848 60 46.6667C60 50.3486 62.9848 53.3333 66.6667 53.3333Z" fill="#4515DD"/>
<path d="M75.9335 58.6C73.0106 57.3246 69.8558 56.6664 66.6668 56.6667C65.3668 56.6667 64.1335 56.8 62.9002 57C64.2335 59.2667 65.0001 61.8667 65.0001 64.6333V70H80.0001V64.7667C80.0001 62.0667 78.4002 59.6667 75.9335 58.6ZM54.1335 55.5C50.2335 53.7667 45.4335 52.5 40.0001 52.5C34.5668 52.5 29.7668 53.8 25.8668 55.5C24.1103 56.2918 22.6212 57.5761 21.5799 59.1972C20.5386 60.8183 19.9898 62.7066 20.0001 64.6333V70H60.0001V64.6333C60.0001 60.7 57.7335 57.1 54.1335 55.5ZM26.9001 63.3333C27.2013 62.5669 27.7863 61.9461 28.5335 61.6C32.2001 59.9667 36.0668 59.1667 39.9668 59.1667C43.9001 59.1667 47.7335 60 51.4001 61.6C52.1668 61.9333 52.7335 62.5667 53.0335 63.3333H26.9001ZM30.0001 40C30.0001 45.5333 34.4668 50 40.0001 50C45.5335 50 50.0001 45.5333 50.0001 40C50.0001 34.4667 45.5335 30 40.0001 30C34.4668 30 30.0001 34.4667 30.0001 40ZM43.3335 40C43.3335 41.8333 41.8335 43.3333 40.0001 43.3333C38.1668 43.3333 36.6668 41.8333 36.6668 40C36.6668 38.1667 38.1668 36.6667 40.0001 36.6667C41.8335 36.6667 43.3335 38.1667 43.3335 40Z" fill="#4515DD"/>
<path d="M8.26667 36.1998C7.23333 33.6665 6.66667 31.1998 6.66667 28.6665C6.66667 20.0665 13.4 13.3332 22 13.3332C30.9333 13.3332 34.7333 19.1332 40 25.2998C45.2333 19.1998 49 13.3332 58 13.3332C66.6 13.3332 73.3333 20.0665 73.3333 28.6665C73.3333 31.1998 72.7667 33.6665 71.7333 36.1998C73.9 37.2332 75.6667 38.9332 76.8333 40.9998C78.8333 36.9998 80 32.9332 80 28.6665C80 16.3332 70.3333 6.6665 58 6.6665C51.0333 6.6665 44.3667 9.89984 40 15.0332C35.6333 9.89984 28.9667 6.6665 22 6.6665C9.66667 6.6665 0 16.3332 0 28.6665C0 32.9332 1.16667 36.9998 3.2 40.9998C4.36667 38.9332 6.13333 37.2332 8.26667 36.1998Z" fill="#4515DD"/>
</g>
<defs>
<clipPath id="clip0_293_1849">
<rect width="80" height="80" fill="white"/>
</clipPath>
</defs>
</svg>
