<svg width="40" height="40" viewBox="0 0 40 40" fill="none" xmlns="http://www.w3.org/2000/svg">
<circle cx="20" cy="20" r="20" fill="#8555EF"/>
<path d="M27.2701 13.33C25.9401 12.71 24.5001 12.26 23.0001 12C22.987 11.9996 22.9739 12.0021 22.9618 12.0073C22.9497 12.0125 22.9389 12.0202 22.9301 12.03C22.7501 12.36 22.5401 12.79 22.4001 13.12C20.8091 12.88 19.1911 12.88 17.6001 13.12C17.4601 12.78 17.2501 12.36 17.0601 12.03C17.0501 12.01 17.0201 12 16.9901 12C15.4901 12.26 14.0601 12.71 12.7201 13.33C12.7101 13.33 12.7001 13.34 12.6901 13.35C9.97012 17.42 9.22012 21.38 9.59012 25.3C9.59012 25.32 9.60012 25.34 9.62012 25.35C11.4201 26.67 13.1501 27.47 14.8601 28C14.8901 28.01 14.9201 28 14.9301 27.98C15.3301 27.43 15.6901 26.85 16.0001 26.24C16.0201 26.2 16.0001 26.16 15.9601 26.15C15.3901 25.93 14.8501 25.67 14.3201 25.37C14.2801 25.35 14.2801 25.29 14.3101 25.26C14.4201 25.18 14.5301 25.09 14.6401 25.01C14.6601 24.99 14.6901 24.99 14.7101 25C18.1501 26.57 21.8601 26.57 25.2601 25C25.2801 24.99 25.3101 24.99 25.3301 25.01C25.4401 25.1 25.5501 25.18 25.6601 25.27C25.7001 25.3 25.7001 25.36 25.6501 25.38C25.1301 25.69 24.5801 25.94 24.0101 26.16C23.9701 26.17 23.9601 26.22 23.9701 26.25C24.2901 26.86 24.6501 27.44 25.0401 27.99C25.0701 28 25.1001 28.01 25.1301 28C26.8501 27.47 28.5801 26.67 30.3801 25.35C30.4001 25.34 30.4101 25.32 30.4101 25.3C30.8501 20.77 29.6801 16.84 27.3101 13.35C27.3001 13.34 27.2901 13.33 27.2701 13.33ZM16.5201 22.91C15.4901 22.91 14.6301 21.96 14.6301 20.79C14.6301 19.62 15.4701 18.67 16.5201 18.67C17.5801 18.67 18.4201 19.63 18.4101 20.79C18.4101 21.96 17.5701 22.91 16.5201 22.91ZM23.4901 22.91C22.4601 22.91 21.6001 21.96 21.6001 20.79C21.6001 19.62 22.4401 18.67 23.4901 18.67C24.5501 18.67 25.3901 19.63 25.3801 20.79C25.3801 21.96 24.5501 22.91 23.4901 22.91Z" fill="#1E095B"/>
</svg>
