<svg width="40" height="40" viewBox="0 0 40 40" fill="none" xmlns="http://www.w3.org/2000/svg">
<circle cx="20" cy="20" r="20" fill="#8555EF"/>
<path fill-rule="evenodd" clip-rule="evenodd" d="M20.0258 10C14.5168 10 10.0518 14.465 10.0518 19.974C10.0518 24.38 12.9088 28.119 16.8728 29.439C17.3718 29.529 17.5518 29.222 17.5518 28.958C17.5518 28.721 17.5438 28.093 17.5408 27.262C14.7658 27.864 14.1798 25.924 14.1798 25.924C13.7278 24.772 13.0728 24.465 13.0728 24.465C12.1678 23.846 13.1418 23.86 13.1418 23.86C14.1438 23.93 14.6688 24.888 14.6688 24.888C15.5588 26.412 17.0048 25.972 17.5708 25.717C17.6618 25.072 17.9218 24.632 18.2058 24.383C15.9918 24.132 13.6638 23.276 13.6638 19.453C13.6638 18.366 14.0528 17.474 14.6878 16.778C14.5868 16.525 14.2418 15.51 14.7868 14.138C14.7868 14.138 15.6238 13.869 17.5288 15.159C18.3424 14.9377 19.1816 14.8247 20.0248 14.823C20.8679 14.8244 21.7072 14.9373 22.5208 15.159C24.4268 13.868 25.2628 14.138 25.2628 14.138C25.8078 15.51 25.4658 16.525 25.3618 16.778C26.0018 17.474 26.3858 18.365 26.3858 19.453C26.3858 23.286 24.0558 24.128 21.8338 24.375C22.1888 24.683 22.5088 25.291 22.5088 26.221C22.5088 27.555 22.4968 28.631 22.4968 28.958C22.4968 29.225 22.6748 29.535 23.1838 29.437C27.1458 28.115 29.9998 24.379 29.9998 19.974C29.9998 14.465 25.5348 10 20.0258 10Z" fill="#1E095B"/>
</svg>
