<svg width="40" height="40" viewBox="0 0 40 40" fill="none" xmlns="http://www.w3.org/2000/svg">
<circle cx="20" cy="20" r="20" fill="#8555EF"/>
<path d="M24.5 10.25H15.5C14.1081 10.2515 12.7736 10.8051 11.7893 11.7893C10.8051 12.7736 10.2515 14.1081 10.25 15.5V24.5C10.2515 25.8919 10.8051 27.2264 11.7893 28.2107C12.7736 29.1949 14.1081 29.7485 15.5 29.75H24.5C25.8919 29.7485 27.2264 29.1949 28.2107 28.2107C29.1949 27.2264 29.7485 25.8919 29.75 24.5V15.5C29.7485 14.1081 29.1949 12.7736 28.2107 11.7893C27.2264 10.8051 25.8919 10.2515 24.5 10.25ZM20 24.5C19.11 24.5 18.24 24.2361 17.4999 23.7416C16.7599 23.2471 16.1831 22.5443 15.8425 21.7221C15.5019 20.8998 15.4128 19.995 15.5865 19.1221C15.7601 18.2492 16.1887 17.4474 16.818 16.818C17.4474 16.1887 18.2492 15.7601 19.1221 15.5865C19.995 15.4128 20.8998 15.5019 21.7221 15.8425C22.5443 16.1831 23.2471 16.7599 23.7416 17.4999C24.2361 18.24 24.5 19.11 24.5 20C24.4988 21.1931 24.0243 22.337 23.1806 23.1806C22.337 24.0243 21.1931 24.4988 20 24.5ZM25.625 15.5C25.4025 15.5 25.185 15.434 25 15.3104C24.815 15.1868 24.6708 15.0111 24.5856 14.8055C24.5005 14.6 24.4782 14.3738 24.5216 14.1555C24.565 13.9373 24.6722 13.7368 24.8295 13.5795C24.9868 13.4222 25.1873 13.315 25.4055 13.2716C25.6238 13.2282 25.85 13.2505 26.0555 13.3356C26.2611 13.4208 26.4368 13.565 26.5604 13.75C26.684 13.935 26.75 14.1525 26.75 14.375C26.75 14.6734 26.6315 14.9595 26.4205 15.1705C26.2095 15.3815 25.9234 15.5 25.625 15.5ZM23 20C23 20.5933 22.8241 21.1734 22.4944 21.6667C22.1648 22.1601 21.6962 22.5446 21.1481 22.7716C20.5999 22.9987 19.9967 23.0581 19.4147 22.9424C18.8328 22.8266 18.2982 22.5409 17.8787 22.1213C17.4591 21.7018 17.1734 21.1672 17.0576 20.5853C16.9419 20.0033 17.0013 19.4001 17.2284 18.8519C17.4554 18.3038 17.8399 17.8352 18.3333 17.5056C18.8266 17.1759 19.4067 17 20 17C20.7956 17 21.5587 17.3161 22.1213 17.8787C22.6839 18.4413 23 19.2044 23 20Z" fill="#1E095B"/>
</svg>
