<svg width="40" height="40" viewBox="0 0 40 40" fill="none" xmlns="http://www.w3.org/2000/svg">
<circle cx="20" cy="20" r="20" fill="#8555EF"/>
<path d="M12.9829 15.197C14.1913 15.197 15.1709 14.2174 15.1709 13.009C15.1709 11.8006 14.1913 10.821 12.9829 10.821C11.7745 10.821 10.7949 11.8006 10.7949 13.009C10.7949 14.2174 11.7745 15.197 12.9829 15.197Z" fill="#1E095B"/>
<path d="M17.2367 16.8551V28.9941H21.0057V22.9911C21.0057 21.4071 21.3037 19.8731 23.2677 19.8731C25.2047 19.8731 25.2287 21.6841 25.2287 23.0911V28.9951H28.9997V22.3381C28.9997 19.0681 28.2957 16.5551 24.4737 16.5551C22.6387 16.5551 21.4087 17.5621 20.9057 18.5151H20.8547V16.8551H17.2367ZM11.0947 16.8551H14.8697V28.9941H11.0947V16.8551Z" fill="#1E095B"/>
</svg>
