<svg width="288" height="87" viewBox="25 35 240 20" fill="none" xmlns="http://www.w3.org/2000/svg">
<g filter="url(#filter0_d_293_2797)">
<path d="M73 42.8721C73 53.9178 64.0457 62.8721 53 62.8721C41.9543 62.8721 33 53.9178 33 42.8721" stroke="#8759EF" stroke-width="2" stroke-linecap="round"/>
<path d="M41.5283 54.4194C45.1714 52.4522 54.9057 49.698 64.6983 54.4194" stroke="#C9ACF7" stroke-width="2"/>
<path d="M69.4148 42.5195C69.4148 51.4434 62.1806 58.6776 53.2567 58.6776C44.3329 58.6776 37.0986 51.4434 37.0986 42.5195" stroke="#C9ACF7" stroke-width="2"/>
<path d="M43.6633 42.8823C43.6636 43.7476 43.0936 40.8383 44.7724 37.1608H48.3101V33.0103" stroke="#C9ACF7" stroke-width="2"/>
<path d="M62.2283 43.2113C62.228 44.0766 62.798 41.1673 61.1192 37.4898H57.5815V32.9355" stroke="#C9ACF7" stroke-width="2"/>
<path d="M52.8057 27.0439V59.2433M37.0986 42.751H69.0362" stroke="#C9ACF7" stroke-width="2"/>
<path d="M51.7377 58.6782C48.9911 56.9341 43.5131 51.2834 43.5737 42.6328" stroke="#C9ACF7" stroke-width="2"/>
<path d="M54.1851 58.6782C56.9317 56.9341 62.4097 51.2834 62.3491 42.6328" stroke="#C9ACF7" stroke-width="2"/>
<path d="M37.1927 43.9324C37.0022 42.1848 36.7769 38.432 38.8624 35.4414" stroke="#C9ACF7" stroke-width="2"/>
<path d="M69.2975 43.7C69.488 41.9523 69.7133 38.1996 67.6278 35.209" stroke="#C9ACF7" stroke-width="2"/>
<circle cx="52.7576" cy="26.3397" r="1.33968" stroke="#C9ACF7" stroke-width="2"/>
<circle cx="48.2801" cy="31.0189" r="1.33968" stroke="#C9ACF7" stroke-width="2"/>
<circle cx="67.075" cy="34.0423" r="1.33968" stroke="#C9ACF7" stroke-width="2"/>
<circle cx="39.1893" cy="34.5277" r="1.33968" stroke="#C9ACF7" stroke-width="2"/>
<circle cx="57.4002" cy="31.0189" r="1.33968" stroke="#C9ACF7" stroke-width="2"/>
<path d="M112.141 39.561C112.141 39.7069 112.115 39.8423 112.062 39.9673L107.062 53.9829C106.99 54.1912 106.844 54.3735 106.625 54.5298C106.406 54.686 106.182 54.7642 105.953 54.7642C105.724 54.7642 105.505 54.686 105.297 54.5298C105.089 54.3735 104.943 54.1912 104.859 53.9829L100.969 43.0767L97.0625 54.0923C96.9896 54.311 96.8438 54.4933 96.625 54.6392C96.4062 54.7954 96.1823 54.8735 95.9531 54.8735C95.724 54.8735 95.5052 54.7954 95.2969 54.6392C95.0885 54.4829 94.9427 54.3006 94.8594 54.0923L89.8594 40.0767C89.8073 39.9517 89.7812 39.8162 89.7812 39.6704C89.7812 39.3475 89.8958 39.0715 90.125 38.8423C90.3542 38.6131 90.6302 38.4985 90.9531 38.4985C91.1927 38.4985 91.4167 38.5767 91.625 38.7329C91.8438 38.8787 91.9896 39.061 92.0625 39.2798L95.9531 50.2017L99.8594 39.186C99.9427 38.9673 100.089 38.785 100.297 38.6392C100.505 38.4933 100.724 38.4204 100.953 38.4204C101.182 38.4204 101.406 38.4985 101.625 38.6548C101.844 38.8006 101.99 38.9777 102.062 39.186L105.953 50.1079L109.859 39.186C109.943 38.9673 110.089 38.7798 110.297 38.6235C110.516 38.4673 110.74 38.3892 110.969 38.3892C111.292 38.3892 111.568 38.509 111.797 38.7485C112.026 38.9777 112.141 39.2485 112.141 39.561ZM121.781 54.7485C120.271 54.7485 118.901 54.3735 117.672 53.6235C116.453 52.8735 115.484 51.8735 114.766 50.6235C114.047 49.3631 113.688 47.9829 113.688 46.4829C113.688 45.0558 114.026 43.7381 114.703 42.5298C115.391 41.311 116.318 40.3319 117.484 39.5923C118.651 38.8527 119.953 38.4829 121.391 38.4829C122.714 38.4829 123.927 38.811 125.031 39.4673C126.146 40.1235 127.036 41.009 127.703 42.1235C128.38 43.2277 128.719 44.4569 128.719 45.811C128.719 46.2902 128.63 46.7017 128.453 47.0454C128.286 47.3892 127.974 47.561 127.516 47.561H116.141C116.307 48.4256 116.646 49.2277 117.156 49.9673C117.677 50.6965 118.328 51.285 119.109 51.7329C119.901 52.1808 120.781 52.4048 121.75 52.4048C122.573 52.4048 123.38 52.2225 124.172 51.8579C124.964 51.4933 125.615 50.9933 126.125 50.3579C126.354 50.0558 126.661 49.9048 127.047 49.9048C127.37 49.9048 127.646 50.0194 127.875 50.2485C128.104 50.4777 128.219 50.7537 128.219 51.0767C128.219 51.3579 128.125 51.6131 127.938 51.8423C127.188 52.759 126.266 53.4725 125.172 53.9829C124.089 54.4933 122.958 54.7485 121.781 54.7485ZM126.328 45.2485C126.234 44.436 125.958 43.6965 125.5 43.0298C125.042 42.3527 124.458 41.8162 123.75 41.4204C123.042 41.0246 122.26 40.8267 121.406 40.8267C120.521 40.8267 119.714 41.0298 118.984 41.436C118.255 41.8423 117.646 42.3787 117.156 43.0454C116.677 43.7121 116.349 44.4465 116.172 45.2485H126.328ZM139.656 54.7485C138.562 54.7485 137.578 54.4569 136.703 53.8735C135.828 53.2902 135.094 52.6965 134.5 52.0923L134.422 53.5923C134.422 53.9152 134.318 54.1912 134.109 54.4204C133.911 54.6496 133.651 54.7642 133.328 54.7642C133.005 54.7642 132.729 54.6496 132.5 54.4204C132.271 54.1912 132.156 53.9152 132.156 53.5923V33.9204C132.156 33.5975 132.271 33.3215 132.5 33.0923C132.729 32.8631 133.005 32.7485 133.328 32.7485C133.651 32.7485 133.927 32.8631 134.156 33.0923C134.385 33.3215 134.5 33.5975 134.5 33.9204V40.9829C135.135 40.3162 135.875 39.7277 136.719 39.2173C137.562 38.7069 138.495 38.4517 139.516 38.4517C140.599 38.4517 141.589 38.6808 142.484 39.1392C143.391 39.5975 144.177 40.2173 144.844 40.9985C145.51 41.7694 146.026 42.6496 146.391 43.6392C146.755 44.6287 146.938 45.6548 146.938 46.7173C146.938 48.1235 146.625 49.4412 146 50.6704C145.375 51.8892 144.516 52.8735 143.422 53.6235C142.328 54.3735 141.073 54.7485 139.656 54.7485ZM139.609 52.4048C140.599 52.4048 141.464 52.1444 142.203 51.6235C142.953 51.0923 143.531 50.3996 143.938 49.5454C144.354 48.6808 144.562 47.7537 144.562 46.7642C144.562 45.7642 144.354 44.811 143.938 43.9048C143.521 42.9881 142.938 42.2433 142.188 41.6704C141.438 41.0871 140.557 40.7954 139.547 40.7954C138.505 40.7954 137.604 41.0715 136.844 41.6235C136.094 42.1652 135.516 42.8683 135.109 43.7329C134.714 44.5975 134.516 45.5194 134.516 46.4985C134.516 47.4777 134.719 48.4204 135.125 49.3267C135.531 50.2329 136.115 50.9725 136.875 51.5454C137.646 52.1183 138.557 52.4048 139.609 52.4048ZM159.562 36.0454C159.115 36.0454 158.719 35.884 158.375 35.561C158.042 35.2381 157.875 34.8475 157.875 34.3892C157.875 33.9308 158.042 33.5402 158.375 33.2173C158.719 32.8944 159.115 32.7329 159.562 32.7329C160.021 32.7329 160.417 32.8944 160.75 33.2173C161.083 33.5402 161.25 33.9308 161.25 34.3892C161.25 34.8475 161.083 35.2381 160.75 35.561C160.417 35.884 160.021 36.0454 159.562 36.0454ZM158.422 39.436C158.422 39.1652 158.547 38.9308 158.797 38.7329C159.047 38.5246 159.281 38.4204 159.5 38.4204C159.865 38.4204 160.167 38.5298 160.406 38.7485C160.646 38.9673 160.766 39.2537 160.766 39.6079L160.797 53.6235C160.797 53.9465 160.682 54.2225 160.453 54.4517C160.224 54.6808 159.948 54.7954 159.625 54.7954C159.302 54.7954 159.026 54.6756 158.797 54.436C158.568 54.2069 158.453 53.9308 158.453 53.6079L158.422 39.436ZM176.906 41.7642C177.25 41.2121 177.672 40.6756 178.172 40.1548C178.672 39.634 179.266 39.2069 179.953 38.8735C180.641 38.5402 181.427 38.3735 182.312 38.3735C183.635 38.3735 184.688 38.6912 185.469 39.3267C186.25 39.9517 186.812 40.811 187.156 41.9048C187.51 42.9985 187.688 44.2381 187.688 45.6235L187.703 53.4985C187.703 53.8215 187.589 54.0975 187.359 54.3267C187.13 54.5558 186.854 54.6704 186.531 54.6704C186.208 54.6704 185.932 54.5558 185.703 54.3267C185.474 54.0871 185.359 53.8058 185.359 53.4829L185.344 45.6235C185.344 44.7694 185.26 43.9725 185.094 43.2329C184.938 42.4933 184.641 41.8944 184.203 41.436C183.766 40.9777 183.125 40.7485 182.281 40.7485C181.188 40.7485 180.292 40.9829 179.594 41.4517C178.896 41.91 178.385 42.5142 178.062 43.2642C177.74 44.0037 177.573 44.7902 177.562 45.6235L177.531 53.5454C177.531 53.8683 177.417 54.1444 177.188 54.3735C176.958 54.6027 176.682 54.7173 176.359 54.7173C176.036 54.7173 175.76 54.6027 175.531 54.3735C175.302 54.134 175.188 53.8527 175.188 53.5298L175.172 45.6235C175.172 44.7485 175.089 43.9412 174.922 43.2017C174.755 42.4621 174.443 41.8683 173.984 41.4204C173.536 40.9725 172.885 40.7485 172.031 40.7485C170.542 40.7485 169.391 41.2069 168.578 42.1235C167.776 43.0298 167.375 44.1965 167.375 45.6235L167.359 53.5767C167.359 53.8996 167.245 54.1756 167.016 54.4048C166.786 54.634 166.51 54.7485 166.188 54.7485C165.865 54.7485 165.589 54.634 165.359 54.4048C165.13 54.1652 165.016 53.884 165.016 53.561L165 39.4985C165.021 39.1756 165.141 38.91 165.359 38.7017C165.578 38.4829 165.849 38.3735 166.172 38.3735C166.505 38.3735 166.771 38.4829 166.969 38.7017C167.177 38.91 167.276 39.1808 167.266 39.5142L167.344 41.3579C167.604 40.91 167.969 40.4569 168.438 39.9985C168.917 39.5402 169.458 39.1548 170.062 38.8423C170.677 38.5298 171.318 38.3735 171.984 38.3735C173.245 38.3735 174.281 38.7173 175.094 39.4048C175.917 40.0819 176.521 40.8683 176.906 41.7642ZM198.969 38.4517C200.385 38.4517 201.641 38.8267 202.734 39.5767C203.828 40.3267 204.688 41.311 205.312 42.5298C205.938 43.7485 206.25 45.0662 206.25 46.4829C206.25 47.5454 206.068 48.5715 205.703 49.561C205.339 50.5506 204.823 51.436 204.156 52.2173C203.49 52.9881 202.703 53.6027 201.797 54.061C200.901 54.5194 199.911 54.7485 198.828 54.7485C197.807 54.7485 196.875 54.4933 196.031 53.9829C195.188 53.4725 194.448 52.884 193.812 52.2173V59.2798C193.812 59.6027 193.698 59.8787 193.469 60.1079C193.24 60.3371 192.964 60.4517 192.641 60.4517C192.318 60.4517 192.042 60.3371 191.812 60.1079C191.583 59.8787 191.469 59.6027 191.469 59.2798V39.6079C191.469 39.285 191.583 39.009 191.812 38.7798C192.042 38.5506 192.318 38.436 192.641 38.436C192.964 38.436 193.224 38.5506 193.422 38.7798C193.63 39.009 193.734 39.285 193.734 39.6079L193.812 41.1079C194.406 40.5037 195.141 39.91 196.016 39.3267C196.891 38.7433 197.875 38.4517 198.969 38.4517ZM198.922 40.7954C197.87 40.7954 196.958 41.0819 196.188 41.6548C195.427 42.2277 194.844 42.9673 194.438 43.8735C194.031 44.7694 193.828 45.7121 193.828 46.7017C193.828 47.6704 194.026 48.5923 194.422 49.4673C194.828 50.3319 195.406 51.0402 196.156 51.5923C196.917 52.134 197.818 52.4048 198.859 52.4048C199.87 52.4048 200.75 52.1183 201.5 51.5454C202.25 50.9621 202.833 50.2173 203.25 49.311C203.667 48.3944 203.875 47.436 203.875 46.436C203.875 45.4465 203.667 44.5246 203.25 43.6704C202.844 42.8058 202.266 42.1131 201.516 41.5923C200.776 41.061 199.911 40.7954 198.922 40.7954ZM217.016 38.4204C218.13 38.4204 219.13 38.7433 220.016 39.3892C220.911 40.035 221.693 40.7173 222.359 41.436L222.5 39.4673C222.5 39.1652 222.583 38.91 222.75 38.7017C222.917 38.4829 223.151 38.3735 223.453 38.3735C223.755 38.3735 224.01 38.4829 224.219 38.7017C224.438 38.91 224.547 39.1652 224.547 39.4673V53.5923C224.547 53.8944 224.438 54.1548 224.219 54.3735C224.01 54.5819 223.755 54.686 223.453 54.686C223.151 54.686 222.891 54.5819 222.672 54.3735C222.464 54.1548 222.359 53.8944 222.359 53.5923V51.811C221.672 52.561 220.854 53.2381 219.906 53.8423C218.969 54.4465 217.979 54.7485 216.938 54.7485C215.865 54.7485 214.87 54.5298 213.953 54.0923C213.036 53.6444 212.234 53.0402 211.547 52.2798C210.859 51.5194 210.323 50.6548 209.938 49.686C209.562 48.7069 209.375 47.6808 209.375 46.6079C209.375 45.5454 209.562 44.5246 209.938 43.5454C210.323 42.5558 210.859 41.6808 211.547 40.9204C212.245 40.1496 213.057 39.5402 213.984 39.0923C214.911 38.6444 215.922 38.4204 217.016 38.4204ZM222.438 46.5142C222.438 45.5037 222.193 44.5662 221.703 43.7017C221.224 42.8267 220.573 42.1183 219.75 41.5767C218.938 41.035 218.031 40.7642 217.031 40.7642C216.021 40.7642 215.115 41.0402 214.312 41.5923C213.51 42.1444 212.875 42.8683 212.406 43.7642C211.948 44.6496 211.719 45.5975 211.719 46.6079C211.719 47.6079 211.948 48.5506 212.406 49.436C212.865 50.3215 213.484 51.0402 214.266 51.5923C215.057 52.134 215.948 52.4048 216.938 52.4048C217.938 52.4048 218.854 52.1287 219.688 51.5767C220.521 51.0142 221.188 50.285 221.688 49.3892C222.188 48.4829 222.438 47.5246 222.438 46.5142ZM228 46.5767C228 45.1287 228.344 43.7954 229.031 42.5767C229.719 41.3475 230.646 40.3579 231.812 39.6079C232.979 38.8579 234.281 38.4829 235.719 38.4829C236.781 38.4829 237.75 38.6808 238.625 39.0767C239.5 39.4725 240.255 39.9933 240.891 40.6392C241.526 41.285 242.016 41.9933 242.359 42.7642C242.443 42.9308 242.484 43.0975 242.484 43.2642C242.484 43.5871 242.37 43.8631 242.141 44.0923C241.911 44.311 241.635 44.4204 241.312 44.4204C241.104 44.4204 240.896 44.3579 240.688 44.2329C240.479 44.0975 240.333 43.9308 240.25 43.7329C239.896 42.9517 239.323 42.2694 238.531 41.686C237.74 41.1027 236.802 40.811 235.719 40.811C234.708 40.811 233.797 41.0819 232.984 41.6235C232.172 42.1548 231.526 42.8631 231.047 43.7485C230.568 44.6235 230.328 45.5715 230.328 46.5923C230.328 47.6131 230.562 48.5662 231.031 49.4517C231.51 50.3267 232.156 51.035 232.969 51.5767C233.792 52.1079 234.708 52.3735 235.719 52.3735C236.802 52.3735 237.74 52.0871 238.531 51.5142C239.333 50.9308 239.911 50.2485 240.266 49.4673C240.349 49.2694 240.495 49.1027 240.703 48.9673C240.911 48.8319 241.12 48.7642 241.328 48.7642C241.651 48.7642 241.927 48.8787 242.156 49.1079C242.385 49.3371 242.5 49.6131 242.5 49.936C242.5 50.1131 242.464 50.2746 242.391 50.4204C242.047 51.1808 241.552 51.8892 240.906 52.5454C240.271 53.1912 239.51 53.7121 238.625 54.1079C237.75 54.5037 236.781 54.7017 235.719 54.7017C234.271 54.7017 232.964 54.3267 231.797 53.5767C230.63 52.8267 229.703 51.8371 229.016 50.6079C228.339 49.3683 228 48.0246 228 46.5767ZM248.359 35.1548C248.359 34.8319 248.474 34.5558 248.703 34.3267C248.932 34.0975 249.208 33.9829 249.531 33.9829C249.854 33.9829 250.13 34.0975 250.359 34.3267C250.589 34.5558 250.703 34.8319 250.703 35.1548L250.688 38.6548L253.734 38.6704C254.036 38.6704 254.292 38.7798 254.5 38.9985C254.719 39.2069 254.828 39.4621 254.828 39.7642C254.828 40.0662 254.719 40.3267 254.5 40.5454C254.292 40.7537 254.036 40.8579 253.734 40.8579L250.688 40.8423L250.672 50.5923C250.672 51.1444 250.755 51.5923 250.922 51.936C251.089 52.2694 251.427 52.436 251.938 52.436C252.396 52.436 252.771 52.3527 253.062 52.186C253.365 52.009 253.708 51.9204 254.094 51.9204C254.417 51.9204 254.693 52.035 254.922 52.2642C255.151 52.4933 255.266 52.7694 255.266 53.0923C255.266 53.5298 255.078 53.8735 254.703 54.1235C254.328 54.3735 253.885 54.5454 253.375 54.6392C252.875 54.7433 252.427 54.7954 252.031 54.7954C250.802 54.7954 249.875 54.4048 249.25 53.6235C248.635 52.8319 248.328 51.811 248.328 50.561L248.344 40.8579H245.938C245.635 40.8579 245.375 40.7537 245.156 40.5454C244.948 40.3267 244.844 40.0662 244.844 39.7642C244.844 39.4621 244.948 39.2069 245.156 38.9985C245.375 38.7798 245.635 38.6704 245.938 38.6704H248.344L248.359 35.1548Z" fill="#C9ACF7"/>
</g>
<defs>
<filter id="filter0_d_293_2797" x="0" y="-4" width="289" height="103.872" filterUnits="userSpaceOnUse" color-interpolation-filters="sRGB">
<feFlood flood-opacity="0" result="BackgroundImageFix"/>
<feColorMatrix in="SourceAlpha" type="matrix" values="0 0 0 0 0 0 0 0 0 0 0 0 0 0 0 0 0 0 127 0" result="hardAlpha"/>
<feOffset dy="4"/>
<feGaussianBlur stdDeviation="16"/>
<feComposite in2="hardAlpha" operator="out"/>
<feColorMatrix type="matrix" values="0 0 0 0 0 0 0 0 0 0 0 0 0 0 0 0 0 0 0.15 0"/>
<feBlend mode="normal" in2="BackgroundImageFix" result="effect1_dropShadow_293_2797"/>
<feBlend mode="normal" in="SourceGraphic" in2="effect1_dropShadow_293_2797" result="shape"/>
</filter>
</defs>
</svg>
