<svg width="80" height="80" viewBox="0 0 80 80" fill="none" xmlns="http://www.w3.org/2000/svg">
<path d="M17.5 26.25C17.5 25.2554 17.8951 24.3016 18.5983 23.5983C19.3016 22.8951 20.2554 22.5 21.25 22.5H58.75C59.7446 22.5 60.6984 22.8951 61.4016 23.5983C62.1049 24.3016 62.5 25.2554 62.5 26.25V53.75C62.5 54.7446 62.1049 55.6984 61.4016 56.4016C60.6984 57.1049 59.7446 57.5 58.75 57.5C57.7554 57.5 56.8016 57.1049 56.0984 56.4016C55.3951 55.6984 55 54.7446 55 53.75V30H21.25C20.2554 30 19.3016 29.6049 18.5983 28.9017C17.8951 28.1984 17.5 27.2446 17.5 26.25ZM73.75 17.5V62.5C73.75 64.1576 73.0915 65.7473 71.9194 66.9194C70.7473 68.0915 69.1576 68.75 67.5 68.75H46.6437C45.8537 68.7498 45.084 68.5002 44.4442 68.0367C43.8045 67.5731 43.3275 66.9194 43.0813 66.1688C42.2967 63.9906 40.8593 62.1075 38.965 60.7764C37.0708 59.4453 34.812 58.731 32.4969 58.731C30.1817 58.731 27.9229 59.4453 26.0287 60.7764C24.1345 62.1075 22.697 63.9906 21.9125 66.1688C21.6666 66.9184 21.1906 67.5714 20.5521 68.0348C19.9136 68.4983 19.1452 68.7485 18.3563 68.75H12.5C10.8424 68.75 9.25269 68.0915 8.08058 66.9194C6.90848 65.7473 6.25 64.1576 6.25 62.5V17.5C6.25 15.8424 6.90848 14.2527 8.08058 13.0806C9.25269 11.9085 10.8424 11.25 12.5 11.25H67.5C69.1576 11.25 70.7473 11.9085 71.9194 13.0806C73.0915 14.2527 73.75 15.8424 73.75 17.5ZM32.5 51.25C33.4889 51.25 34.4556 50.9568 35.2779 50.4073C36.1001 49.8579 36.741 49.0771 37.1194 48.1634C37.4978 47.2498 37.5969 46.2445 37.4039 45.2746C37.211 44.3046 36.7348 43.4137 36.0355 42.7145C35.3363 42.0152 34.4454 41.539 33.4755 41.3461C32.5055 41.1531 31.5002 41.2522 30.5866 41.6306C29.673 42.009 28.8921 42.6499 28.3427 43.4721C27.7932 44.2944 27.5 45.2611 27.5 46.25C27.5 47.5761 28.0268 48.8479 28.9645 49.7855C29.9021 50.7232 31.1739 51.25 32.5 51.25ZM66.25 18.75H13.75V61.25H15.9125C17.4897 58.2718 19.8383 55.7721 22.7125 54.0125C21.2502 52.1717 20.3366 49.9558 20.0766 47.6193C19.8167 45.2828 20.221 42.9203 21.243 40.8031C22.265 38.6859 23.8634 36.8999 25.8546 35.6501C27.8458 34.4002 30.1491 33.7372 32.5 33.7372C34.8509 33.7372 37.1542 34.4002 39.1454 35.6501C41.1366 36.8999 42.735 38.6859 43.757 40.8031C44.779 42.9203 45.1833 45.2828 44.9234 47.6193C44.6634 49.9558 43.7498 52.1717 42.2875 54.0125C45.1617 55.7721 47.5103 58.2718 49.0875 61.25H66.25V18.75Z" fill="#4515DD"/>
</svg>
